<?xml version="1.0" standalone="no"?>
<!DOCTYPE svg PUBLIC "-//W3C//DTD SVG 20010904//EN"
 "http://www.w3.org/TR/2001/REC-SVG-20010904/DTD/svg10.dtd">
<svg version="1.0" xmlns="http://www.w3.org/2000/svg"
 width="1024.000000pt" height="1024.000000pt" viewBox="0 0 1024.000000 1024.000000"
 preserveAspectRatio="xMidYMid meet">
<metadata>
Created by potrace 1.14, written by Peter Selinger 2001-2017
</metadata>
<g transform="translate(0.000000,1024.000000) scale(0.100000,-0.100000)"
fill="#000000" stroke="none">
<path d="M6900 10224 c-76 -20 -73 -19 -95 -31 -11 -6 -24 -11 -28 -11 -12 -1
-110 -58 -133 -78 -12 -11 -48 -41 -79 -69 -32 -27 -63 -54 -69 -60 -6 -5 -45
-39 -86 -75 -41 -36 -82 -72 -91 -80 -9 -8 -37 -33 -63 -55 -26 -22 -66 -57
-89 -78 -23 -20 -61 -54 -85 -75 -24 -20 -57 -49 -73 -64 -16 -16 -31 -28 -34
-28 -2 0 -24 -19 -49 -42 -72 -68 -106 -98 -106 -94 0 3 -17 -12 -39 -32 -21
-20 -64 -59 -96 -87 -32 -27 -71 -61 -86 -75 -81 -72 -146 -127 -173 -147 -16
-13 -26 -23 -20 -23 5 0 -3 -8 -17 -18 -15 -9 -57 -44 -94 -77 -74 -66 -88
-78 -165 -145 -29 -25 -63 -55 -76 -67 -13 -13 -25 -23 -28 -23 -2 0 -19 -15
-37 -33 -39 -37 -151 -135 -191 -167 -15 -11 -40 -33 -56 -48 -29 -28 -99 -90
-148 -131 -30 -25 -175 -152 -184 -161 -3 -3 -36 -32 -75 -65 -38 -33 -76 -67
-85 -75 -9 -8 -44 -40 -79 -70 -99 -86 -153 -133 -182 -160 -15 -14 -44 -38
-64 -55 -21 -16 -47 -39 -59 -50 -89 -79 -129 -115 -171 -150 -26 -22 -54 -47
-63 -56 -10 -8 -71 -62 -136 -120 -66 -57 -131 -115 -145 -128 -14 -13 -43
-37 -65 -55 -21 -17 -57 -48 -80 -69 -22 -21 -58 -53 -79 -70 -21 -18 -49 -41
-61 -52 -23 -21 -122 -107 -211 -185 -131 -115 -168 -147 -199 -175 -18 -16
-54 -48 -81 -70 -26 -22 -60 -51 -75 -65 -23 -22 -106 -95 -174 -153 -12 -10
-35 -31 -51 -45 -17 -15 -64 -56 -105 -92 -41 -36 -77 -67 -80 -70 -3 -3 -57
-50 -120 -105 -63 -55 -117 -102 -120 -105 -3 -3 -36 -32 -75 -65 -38 -33 -72
-63 -75 -66 -3 -3 -27 -25 -55 -49 -124 -104 -205 -184 -245 -239 -24 -32 -41
-61 -39 -64 2 -3 -3 -13 -11 -23 -34 -41 -71 -189 -72 -289 0 -15 10 -96 17
-134 8 -45 63 -178 81 -196 8 -7 14 -18 14 -23 0 -5 30 -41 67 -79 120 -123
264 -190 428 -199 159 -8 275 -9 275 -2 0 4 6 5 14 2 20 -8 226 -10 226 -3 0
4 15 3 34 -1 19 -4 39 -4 46 0 7 4 26 4 44 0 17 -4 40 -4 51 0 11 4 32 4 47
-1 14 -4 29 -5 31 -3 3 3 27 5 53 4 47 -1 70 -1 97 1 6 0 40 -1 74 -2 35 -1
65 0 68 3 3 3 24 2 45 -2 22 -4 43 -4 45 0 3 4 20 5 37 1 18 -4 45 -4 59 0 15
3 32 3 39 -1 7 -4 25 -4 41 0 15 5 30 6 32 3 8 -8 197 -9 197 -1 0 4 6 5 14 2
20 -8 226 -10 226 -3 0 4 15 3 34 -1 19 -4 39 -4 46 0 7 4 26 4 44 0 17 -4 40
-4 51 0 11 4 31 4 45 0 14 -3 39 -4 55 0 17 3 49 3 73 -1 23 -3 42 -3 42 1 0
3 16 4 35 2 39 -5 46 -24 20 -58 -8 -10 -15 -25 -15 -31 0 -7 -13 -40 -29 -73
-16 -33 -27 -60 -25 -60 3 0 -1 -12 -9 -27 -8 -16 -19 -39 -25 -53 -6 -14 -25
-56 -42 -94 -16 -38 -30 -75 -30 -82 0 -7 -3 -14 -7 -16 -5 -1 -19 -30 -32
-63 -12 -33 -34 -85 -48 -115 -14 -30 -32 -73 -39 -94 -8 -22 -18 -44 -23 -50
-4 -6 -20 -41 -34 -79 -15 -37 -36 -86 -46 -110 -29 -64 -158 -364 -166 -387
-1 -3 -10 -23 -20 -45 -9 -22 -37 -87 -62 -145 -24 -58 -51 -118 -58 -135 -50
-110 -195 -456 -195 -464 0 -6 -5 -11 -10 -11 -6 0 -9 -3 -8 -7 2 -5 -14 -47
-34 -94 -40 -92 -60 -141 -63 -149 -1 -3 -11 -25 -22 -50 -12 -25 -49 -112
-84 -195 -35 -82 -66 -152 -69 -155 -3 -3 -6 -12 -8 -20 -2 -8 -21 -55 -43
-104 -21 -49 -39 -95 -39 -102 0 -8 -4 -14 -10 -14 -5 0 -10 -6 -10 -13 0 -8
-24 -68 -54 -135 -30 -66 -51 -123 -48 -126 3 -3 0 -6 -6 -6 -7 0 -12 -6 -12
-13 0 -7 -25 -70 -55 -140 -30 -70 -57 -137 -59 -150 -3 -12 -5 -22 -6 -22 -3
0 -11 -43 -15 -90 -7 -69 -7 -63 0 -135 13 -138 77 -271 180 -375 62 -63 175
-145 175 -128 0 3 9 -2 21 -13 12 -10 24 -18 28 -17 3 1 24 -3 46 -9 22 -6 47
-13 55 -15 43 -12 213 -11 252 1 24 7 49 11 56 8 6 -2 12 1 12 8 0 6 4 9 8 6
22 -13 201 93 268 159 6 6 39 35 74 65 34 30 79 71 100 90 21 19 49 44 62 54
34 28 160 137 179 155 9 9 35 32 58 51 24 19 53 45 64 56 12 12 58 52 102 90
44 37 82 71 85 74 3 3 23 20 45 39 22 18 61 53 86 77 26 24 49 40 53 37 3 -4
6 -2 6 4 0 6 30 37 68 68 37 32 96 84 132 115 36 32 103 91 150 132 46 40 92
80 100 88 22 20 70 62 165 144 44 38 87 76 96 85 9 9 27 25 40 35 24 20 174
150 195 170 11 11 92 81 144 126 14 12 54 47 89 78 35 31 73 65 85 75 33 28
105 90 130 112 72 64 163 143 187 165 15 14 49 43 75 65 26 22 60 52 76 68 16
15 31 27 33 27 3 0 26 19 51 42 25 24 54 50 63 58 9 8 51 44 92 79 41 36 81
72 90 80 9 9 35 32 58 51 24 19 53 45 64 56 19 18 66 60 210 183 10 9 29 25
41 36 12 11 50 45 85 75 35 30 69 60 75 65 6 6 49 44 96 84 47 41 96 84 110
97 14 12 66 58 115 101 82 71 139 121 169 148 6 6 45 39 86 75 41 35 86 74
100 87 30 27 77 69 144 126 27 23 62 54 78 70 16 15 31 27 33 27 2 0 14 10 27
22 13 13 54 50 93 83 38 33 76 67 85 75 9 8 45 40 80 70 36 30 74 64 86 75 12
11 30 27 40 36 228 189 323 289 374 392 22 45 42 93 44 107 3 14 5 25 6 25 7
0 13 57 15 145 2 94 -12 192 -33 225 -4 6 -7 16 -8 22 -5 33 -81 149 -132 201
-49 51 -176 145 -177 131 -1 -2 -13 4 -28 14 -15 9 -27 15 -27 11 0 -4 -6 -2
-12 4 -43 34 -107 36 -1281 37 -636 1 -1159 4 -1161 6 -3 3 69 175 199 474 4
11 9 22 10 25 0 3 11 27 23 54 12 27 22 50 22 52 0 2 11 27 24 56 30 67 100
231 102 238 0 3 11 27 23 55 12 27 28 63 35 80 7 16 19 44 26 60 8 17 14 32
15 35 0 3 11 27 23 54 12 27 22 50 22 52 0 2 12 29 26 61 14 32 32 72 39 88
17 41 61 144 82 191 9 21 17 41 18 44 1 3 8 21 17 40 52 117 98 230 98 239 0
6 5 11 10 11 6 0 10 11 10 25 0 14 5 25 10 25 6 0 10 8 10 18 0 10 7 27 15 38
8 10 15 24 15 31 0 6 13 40 29 75 25 55 40 90 94 218 6 14 10 28 9 33 -1 4 2
7 8 7 6 0 9 3 8 8 -1 8 3 19 56 139 20 45 36 84 36 87 0 3 11 29 24 58 27 57
58 130 60 138 1 3 8 16 16 30 7 14 13 26 12 27 -1 3 17 47 50 123 10 25 23 54
28 65 4 11 17 41 29 67 12 26 21 50 21 53 0 2 11 28 24 57 56 122 136 312 136
323 0 7 7 18 15 25 8 6 14 15 13 18 -1 4 6 31 15 60 9 30 16 57 16 60 -1 4 0
9 1 12 2 6 7 61 9 100 2 36 -6 123 -12 140 -3 8 -8 28 -12 45 -16 70 -85 191
-147 257 -51 54 -155 138 -172 138 -2 0 -21 8 -42 17 -22 9 -42 18 -46 19 -5
1 -9 2 -10 4 -2 1 -10 3 -18 5 -8 2 -28 6 -45 10 -57 14 -219 13 -275 -1z"/>
</g>
</svg>
